<svg width="1080" height="1080" viewBox="0 0 1080 1080" fill="none" xmlns="http://www.w3.org/2000/svg">
<rect width="1080" height="1080" rx="100" fill="#051430"/>
<path d="M268.977 528.716C282.242 524.321 294.123 519.072 304.621 512.969C315.119 506.865 323.868 500.68 330.866 494.414C337.539 488.473 342.707 482.899 346.369 477.69C350.113 472.401 351.984 468.454 351.984 465.85C351.984 463.815 351.455 462.147 350.397 460.845C349.421 459.461 347.956 458.77 346.003 458.77C341.527 458.77 336.97 459.787 332.331 461.821C327.692 463.856 322.688 466.948 317.316 471.099C307.388 478.667 298.07 487.863 289.362 498.687C280.736 509.51 273.941 519.52 268.977 528.716ZM198.786 589.995C193.415 588.205 187.637 586.699 181.452 585.479C175.267 584.176 170.181 583.525 166.193 583.525C161.473 583.525 157.852 584.095 155.329 585.234C152.806 586.374 151.545 587.798 151.545 589.507C151.545 593.332 157.445 595.244 169.245 595.244C179.906 595.244 189.753 593.494 198.786 589.995ZM250.3 540.19L253.474 534.941C246.475 536.65 239.558 537.505 232.722 537.505C224.584 537.505 217.707 536.243 212.092 533.721C206.477 531.117 202.123 527.536 199.03 522.979C196.019 518.34 194.514 513.172 194.514 507.476C194.514 499.256 197.891 491.24 204.646 483.428C211.481 475.534 221.125 469.186 233.576 464.385C246.027 459.502 259.984 457.061 275.446 457.061V458.77C260.961 458.77 247.777 461.089 235.896 465.728C224.014 470.366 214.737 476.429 208.063 483.916C201.39 491.322 198.054 499.419 198.054 508.208C198.054 516.346 201.187 522.775 207.453 527.495C210.79 529.937 214.655 531.808 219.05 533.11C223.444 534.331 228.531 534.941 234.309 534.941C238.052 534.941 241.551 534.738 244.807 534.331C248.143 533.843 251.805 532.988 255.793 531.768C263.524 521.27 272.069 510.69 281.428 500.029C290.786 489.287 301.366 479.44 313.166 470.488C325.048 461.536 335.993 457.061 346.003 457.061C352.188 457.061 355.28 459.705 355.28 464.995C355.28 468.901 353.164 473.825 348.933 479.766C344.782 485.625 338.801 491.769 330.988 498.198C323.257 504.546 313.939 510.649 303.034 516.509C292.536 521.961 280.858 526.803 268 531.035L266.047 533.721L251.398 553.618C249.038 556.792 245.702 560.617 241.389 565.093C237.157 569.487 231.989 573.8 225.886 578.032C220.352 581.938 213.394 585.926 205.012 589.995C210.057 591.704 215.103 593.006 220.148 593.901C225.275 594.797 230.565 595.244 236.018 595.244C241.307 595.244 246.231 594.39 250.788 592.681C255.345 590.972 260.432 587.961 266.047 583.647C268.651 581.613 272.191 578.683 276.667 574.858C281.143 570.952 286.595 566.151 293.024 560.454V562.529L272.15 580.962C266.861 585.519 262.385 588.815 258.723 590.85C256.932 591.908 255.183 592.803 253.474 593.535C251.765 594.268 249.812 594.919 247.614 595.488C244.034 596.465 240.168 596.953 236.018 596.953C231.053 596.953 225.926 596.506 220.637 595.61C215.347 594.715 209.366 593.25 202.692 591.216C196.996 593.169 191.503 594.593 186.213 595.488C180.923 596.465 175.349 596.953 169.489 596.953C155.817 596.953 148.981 594.471 148.981 589.507C148.981 584.299 155.085 581.694 167.292 581.694C172.093 581.694 176.61 582.101 180.842 582.915C185.155 583.647 190.526 585.112 196.955 587.31L202.204 589.019C211.807 583.566 220.311 577.178 227.717 569.854C235.122 562.529 242.65 552.642 250.3 540.19ZM325.983 548.003C321.101 548.003 315.689 550.404 309.748 555.205C303.889 559.925 298.68 565.378 294.123 571.562C289.647 577.666 287.409 581.979 287.409 584.502C287.409 585.723 287.775 586.699 288.508 587.432C289.24 588.164 290.298 588.612 291.682 588.774C294.937 588.774 299.657 586.496 305.842 581.938C312.108 577.3 317.805 572.01 322.932 566.069C328.059 560.129 330.622 555.531 330.622 552.275C330.622 549.427 329.076 548.003 325.983 548.003ZM358.21 563.018L351.984 568.267C341.975 576.567 334.65 582.345 330.012 585.601C325.454 588.856 321.426 590.483 317.927 590.483C315.567 590.483 314.387 589.141 314.387 586.455C314.387 583.77 315.485 579.782 317.683 574.492C306.045 585.153 297.46 590.483 291.926 590.483C289.484 590.483 287.491 589.507 285.944 587.554C284.398 585.601 283.625 582.834 283.625 579.253C283.625 575.184 284.846 571.115 287.287 567.046C289.729 562.977 293.024 559.396 297.175 556.304C301.325 553.211 305.882 550.77 310.847 548.979C313.288 548.166 315.811 547.515 318.415 547.026C321.019 546.538 323.461 546.294 325.739 546.294C328.181 546.294 329.89 546.742 330.866 547.637C332.087 548.451 332.697 549.834 332.697 551.787L332.453 553.008L332.209 554.473C332.209 555.205 332.128 555.734 331.965 556.06L339.655 547.026L349.909 546.294L346.735 550.2L340.388 557.891L336.237 562.773C323.542 576.445 317.194 584.502 317.194 586.943C317.194 588.164 317.764 588.774 318.903 588.774C320.45 588.774 322.688 587.92 325.617 586.211C328.628 584.421 332.168 581.938 336.237 578.765L349.543 568.145L358.21 560.942V563.018ZM355.158 563.506L369.318 551.787C369.156 550.973 369.074 550.404 369.074 550.078C369.074 548.695 369.562 547.433 370.539 546.294C371.923 544.748 373.632 543.975 375.666 543.975C377.945 543.975 379.084 545.073 379.084 547.271C379.084 548.328 378.84 549.142 378.352 549.712C377.863 550.282 377.049 550.648 375.91 550.811C374.038 550.811 372.614 550.282 371.638 549.224C371.394 550.282 371.8 551.34 372.858 552.397C374.16 553.293 375.992 553.74 378.352 553.74C384.13 553.74 388.321 552.764 390.925 550.811L395.075 547.271C399.226 543.771 402.074 542.021 403.62 542.021C404.678 542.021 405.248 542.428 405.329 543.242C405.329 547.148 399.917 550.566 389.094 553.496L362.849 575.713C367.406 574.411 371.068 573.76 373.835 573.76C378.229 573.76 380.427 575.509 380.427 579.009C380.427 580.474 379.491 582.142 377.619 584.014C376.968 584.665 376.561 585.438 376.398 586.333C376.398 587.065 376.724 587.472 377.375 587.554C379.003 587.554 383.316 584.705 390.314 579.009C397.801 572.987 404.637 566.802 410.822 560.454V562.529C391.698 581.165 379.369 590.483 373.835 590.483C372.858 590.483 371.8 590.117 370.661 589.385C369.766 588.652 369.318 587.513 369.318 585.967C369.318 584.095 370.661 581.938 373.347 579.497C374.73 578.683 375.666 577.788 376.154 576.812C376.317 576.405 376.114 576.079 375.544 575.835C375.056 575.591 374.079 575.469 372.614 575.469C368.789 575.469 363.378 577.544 356.379 581.694L352.961 585.723L349.665 589.141C348.688 589.873 347.671 590.321 346.613 590.483C345.067 590.483 344.253 589.914 344.172 588.774C344.172 586.577 348.811 582.915 358.088 577.788L385.92 554.473C383.967 554.798 382.339 555.042 381.037 555.205C379.816 555.368 378.677 555.449 377.619 555.449C374.038 555.449 371.638 554.473 370.417 552.52L355.158 565.459V563.506ZM443.659 548.003C438.776 548.003 433.365 550.404 427.424 555.205C421.564 559.925 416.356 565.378 411.799 571.562C407.323 577.666 405.085 581.979 405.085 584.502C405.085 585.723 405.451 586.699 406.184 587.432C406.916 588.164 407.974 588.612 409.357 588.774C412.613 588.774 417.333 586.496 423.518 581.938C429.784 577.3 435.48 572.01 440.607 566.069C445.734 560.129 448.298 555.531 448.298 552.275C448.298 549.427 446.752 548.003 443.659 548.003ZM475.886 563.018L469.66 568.267C459.65 576.567 452.326 582.345 447.688 585.601C443.13 588.856 439.102 590.483 435.603 590.483C433.243 590.483 432.062 589.141 432.062 586.455C432.062 583.77 433.161 579.782 435.358 574.492C423.721 585.153 415.135 590.483 409.602 590.483C407.16 590.483 405.166 589.507 403.62 587.554C402.074 585.601 401.301 582.834 401.301 579.253C401.301 575.184 402.521 571.115 404.963 567.046C407.404 562.977 410.7 559.396 414.851 556.304C419.001 553.211 423.558 550.77 428.522 548.979C430.964 548.166 433.487 547.515 436.091 547.026C438.695 546.538 441.136 546.294 443.415 546.294C445.856 546.294 447.565 546.742 448.542 547.637C449.763 548.451 450.373 549.834 450.373 551.787L450.129 553.008L449.885 554.473C449.885 555.205 449.803 555.734 449.641 556.06L457.331 547.026L467.585 546.294L464.411 550.2L458.063 557.891L453.913 562.773C441.218 576.445 434.87 584.502 434.87 586.943C434.87 588.164 435.44 588.774 436.579 588.774C438.125 588.774 440.363 587.92 443.293 586.211C446.304 584.421 449.844 581.938 453.913 578.765L467.219 568.145L475.886 560.942V563.018ZM515.314 521.514C517.105 521.514 518 522.612 518 524.81C518 525.949 517.634 527.007 516.901 527.983C516.169 528.716 515.233 529.123 514.094 529.204C511.896 529.204 510.798 528.228 510.798 526.274C510.798 525.135 511.205 524.077 512.019 523.101C512.914 522.124 514.012 521.595 515.314 521.514ZM473.078 565.215L472.834 563.262C478.775 557.809 486.018 552.479 494.562 547.271H505.549L476.74 579.497C474.868 581.532 473.566 583.647 472.834 585.845C472.753 586.089 472.712 586.374 472.712 586.699C472.712 586.943 472.712 587.106 472.712 587.188C472.712 588.245 473.241 588.774 474.299 588.774C478.368 588.774 484.431 585.763 492.487 579.741C500.544 573.719 507.99 567.371 514.826 560.698V562.773C507.095 570.26 499.486 576.771 491.999 582.305C484.593 587.757 478.612 590.483 474.055 590.483C471.369 590.483 470.026 589.059 470.026 586.211C470.026 577.91 476.618 567.087 489.802 553.74L491.755 551.665L493.586 549.712C486.18 554.188 479.344 559.355 473.078 565.215ZM511.652 565.459V563.506C524.022 552.031 532.689 546.294 537.653 546.294C540.42 546.294 541.804 548.044 541.804 551.543C541.804 554.147 540.949 556.873 539.24 559.722C537.531 562.489 534.073 567.168 528.864 573.76C538.711 565.622 547.419 559.03 554.987 553.984C562.556 548.857 568.944 546.294 574.152 546.294C576.919 546.294 578.303 548.206 578.303 552.031C578.303 555.693 577.041 559.355 574.519 563.018C571.996 566.68 567.683 570.749 561.579 575.225C555.231 580.026 552.058 583.444 552.058 585.479C552.058 586.13 552.424 586.903 553.156 587.798C553.807 588.286 554.621 588.612 555.598 588.774C558.446 588.774 562.189 587.228 566.828 584.136C571.874 580.636 577.001 576.649 582.209 572.173L595.637 560.454V562.529C590.917 567.087 586.075 571.44 581.11 575.591C576.634 579.334 571.914 582.834 566.95 586.089C562.312 589.019 558.446 590.483 555.354 590.483C553.482 590.483 552.058 589.832 551.081 588.53C550.267 587.147 549.86 585.804 549.86 584.502C549.86 581.491 551.081 577.992 553.522 574.004C556.045 570.016 559.423 566.273 563.654 562.773C568.7 558.216 572.118 554.717 573.908 552.275C574.722 551.055 575.129 550.2 575.129 549.712C575.129 548.735 574.193 548.247 572.321 548.247C568.496 548.247 562.718 550.851 554.987 556.06C550.918 558.745 547.175 561.349 543.757 563.872C540.42 566.395 536.921 569.243 533.259 572.417C526.993 577.625 520.604 583.241 514.094 589.263H504.572L520.808 570.952C532.689 557.687 538.63 550.444 538.63 549.224C538.63 548.573 538.142 548.166 537.165 548.003C533.584 548.003 525.08 553.822 511.652 565.459ZM760.432 525.542C757.014 520.985 752.863 518.706 747.98 518.706C746.353 518.706 744.969 519.276 743.83 520.415C742.691 521.392 742.121 522.653 742.121 524.199C742.121 527.21 744.562 528.716 749.445 528.716C750.585 528.716 751.439 528.675 752.009 528.594C752.578 528.512 753.596 528.268 755.061 527.861C756.525 527.373 758.316 526.6 760.432 525.542ZM734.919 470.488L736.872 470.732C736.872 477.975 734.512 485.544 729.792 493.438C725.072 501.331 719.131 508.534 711.97 515.044C704.89 521.554 697.321 526.885 689.265 531.035C681.208 535.186 674.087 537.261 667.902 537.261C662.938 537.261 659.032 535.796 656.184 532.866C653.335 529.855 651.911 525.745 651.911 520.537C651.911 513.05 654.556 505.522 659.846 497.954C665.135 490.386 672.297 483.59 681.33 477.568C690.363 471.465 700.943 466.501 713.068 462.676C718.928 460.885 724.991 459.502 731.257 458.525C737.523 457.549 743.83 457.061 750.178 457.061C755.793 457.061 760.757 457.427 765.07 458.159C769.383 458.892 773.208 460.031 776.545 461.577C779.963 463.123 783.828 465.605 788.142 469.023C789.606 468.128 791.682 466.908 794.367 465.361C796.32 464.222 798.558 463.042 801.081 461.821C805.638 459.624 809.585 458.037 812.922 457.061L814.387 459.014C810.887 459.99 806.656 461.74 801.691 464.263C798.843 465.646 796.483 466.867 794.611 467.925C792.821 468.901 791.275 469.837 789.973 470.732C792.414 473.581 794.082 476.429 794.978 479.277C795.303 480.498 795.588 482.004 795.832 483.794C796.076 485.503 796.198 487.334 796.198 489.287C796.198 494.577 795.018 499.378 792.658 503.691C790.38 508.005 786.921 511.951 782.282 515.532C777.725 519.113 771.418 522.775 763.361 526.519C765.07 529.611 766.291 532.419 767.023 534.941C767.756 537.464 768.122 540.475 768.122 543.975C768.122 550.078 766.413 556.344 762.995 562.773C759.577 569.202 755.061 574.94 749.445 579.985C743.911 584.95 737.564 589.019 730.402 592.192C723.241 595.366 716.242 596.953 709.406 596.953C701.757 596.953 697.932 593.739 697.932 587.31C697.932 582.59 699.844 577.544 703.669 572.173C707.575 566.802 712.661 561.919 718.928 557.524C725.275 553.13 732.03 549.956 739.191 548.003L739.68 549.712C728.205 553.618 719.375 558.542 713.19 564.482C709.04 568.389 705.744 572.417 703.303 576.567C700.861 580.718 699.641 584.461 699.641 587.798C699.641 592.762 702.977 595.244 709.65 595.244C716.568 595.244 723.282 593.088 729.792 588.774C736.384 584.38 742.202 578.724 747.248 571.807C752.375 564.808 756.322 558.013 759.089 551.421C761.937 544.748 763.361 539.255 763.361 534.941C763.361 532.337 762.873 529.855 761.896 527.495C758.072 529.53 753.921 530.547 749.445 530.547C746.109 530.547 743.749 529.977 742.365 528.838C741.714 528.187 741.226 527.495 740.9 526.763C740.575 526.03 740.412 525.094 740.412 523.955C740.412 522.083 741.063 520.456 742.365 519.072C743.749 517.689 745.702 516.997 748.225 516.997C753.026 516.997 757.665 519.601 762.141 524.81C767.349 521.799 772.191 517.974 776.667 513.335C781.143 508.696 784.764 503.569 787.531 497.954C788.833 495.269 789.81 492.705 790.461 490.264C791.112 487.741 791.438 485.218 791.438 482.695C791.438 477.894 790.339 474.313 788.142 471.953C779.597 476.673 770.645 483.428 761.286 492.217C751.927 501.006 741.958 513.172 731.379 528.716C725.926 537.017 721.166 543.527 717.097 548.247C713.028 552.886 707.982 557.972 701.96 563.506C695.531 569.447 689.061 574.736 682.551 579.375C676.61 583.525 670.629 587.025 664.606 589.873C661.84 591.094 659.113 592.111 656.428 592.925C653.824 593.739 650.935 594.512 647.761 595.244C642.064 596.383 636.205 596.953 630.183 596.953C611.872 596.953 602.717 592.314 602.717 583.037C602.717 580.758 603.286 578.927 604.426 577.544C605.565 576.16 607.152 575.469 609.187 575.469C610.407 575.469 611.384 575.916 612.116 576.812C612.93 577.625 613.378 578.683 613.459 579.985C613.459 580.962 613.011 581.857 612.116 582.671C611.221 583.403 610.326 583.77 609.431 583.77C607.966 583.77 606.704 583.078 605.646 581.694L604.914 581.206C604.751 581.369 604.629 581.613 604.548 581.938C604.466 582.264 604.426 582.793 604.426 583.525C604.426 586.943 606.582 589.792 610.896 592.07C615.371 594.186 621.556 595.244 629.45 595.244C637.914 595.244 645.441 594.227 652.033 592.192C658.625 590.076 664.851 586.781 670.71 582.305C676.651 577.829 683.405 571.562 690.974 563.506L699.152 554.229L713.068 537.871L728.083 520.415C732.64 515.207 735.773 511.911 737.482 510.527L744.929 503.447C756.566 492.542 764.297 485.544 768.122 482.451C772.028 479.277 778.05 475.208 786.188 470.244C777.318 462.594 765.477 458.77 750.666 458.77C736.994 458.77 724.299 460.682 712.58 464.507C700.943 468.25 690.689 473.215 681.818 479.399C673.029 485.584 666.153 492.339 661.188 499.663C656.306 506.987 653.864 513.864 653.864 520.293C653.864 524.932 655.085 528.594 657.526 531.279C659.968 533.965 663.426 535.308 667.902 535.308C673.599 535.308 680.435 533.273 688.41 529.204C696.385 525.135 703.791 519.967 710.627 513.701C717.544 507.435 723.322 500.477 727.961 492.827C732.6 485.096 734.919 477.65 734.919 470.488ZM849.299 489.287L855.402 482.695H864.802L787.897 568.755C778.701 578.846 774.104 584.746 774.104 586.455C774.104 588.001 774.917 588.774 776.545 588.774C779.393 588.774 782.608 587.594 786.188 585.234C789.769 582.874 794.733 578.846 801.081 573.149L814.875 560.942V563.018C803.97 573.109 795.873 580.229 790.583 584.38C785.375 588.449 780.695 590.483 776.545 590.483C775.08 590.483 773.859 589.914 772.883 588.774C771.825 587.635 771.296 586.374 771.296 584.99C771.296 580.84 773.33 575.998 777.399 570.464C781.468 564.93 786.962 558.46 793.879 551.055L798.273 545.928L805.354 537.505C799.657 541.737 788.833 550.973 772.883 565.215V563.262L807.551 533.232C811.701 529.652 825.617 515.003 849.299 489.287ZM820.856 565.947C827.448 565.947 833.104 565.093 837.824 563.384C842.544 561.675 846.084 559.64 848.444 557.28C850.886 554.92 852.106 553.008 852.106 551.543C852.106 549.183 850.723 548.003 847.956 548.003C844.213 548.003 839.859 549.631 834.895 552.886C830.012 556.141 825.332 560.495 820.856 565.947ZM864.191 560.454V562.529C855.077 571.644 846.695 578.602 839.045 583.403C831.395 588.123 823.786 590.483 816.218 590.483C809.382 590.483 805.964 586.577 805.964 578.765C805.964 572.417 808.405 566.761 813.288 561.797C818.171 556.833 823.908 553.008 830.5 550.322C837.173 547.637 842.626 546.294 846.857 546.294C849.299 546.294 851.13 546.864 852.351 548.003C853.734 548.979 854.426 550.404 854.426 552.275C854.426 554.961 852.961 557.443 850.031 559.722C847.183 562 842.951 563.994 837.336 565.703C834.406 566.517 831.395 567.168 828.303 567.656C825.292 568.063 821.996 568.267 818.415 568.267C812.23 575.347 809.138 580.677 809.138 584.258C809.138 585.56 809.829 586.659 811.213 587.554C812.596 588.368 814.265 588.774 816.218 588.774C829.32 588.774 845.311 579.334 864.191 560.454ZM861.262 565.459V563.506C866.551 558.46 874.038 553.049 883.723 547.271H893.977L866.755 578.276C862.36 583.322 860.082 586.333 859.919 587.31C859.919 588.123 860.611 588.53 861.994 588.53C866.47 588.53 873.794 584.583 883.967 576.689C894.139 568.714 905.41 558.908 917.78 547.271H927.424L898.981 579.741L896.906 582.061C895.93 583.2 895.197 584.217 894.709 585.112C894.221 585.926 893.977 586.74 893.977 587.554C893.977 588.286 894.628 588.693 895.93 588.774C898.778 588.774 904.393 586.089 912.775 580.718C921.158 575.347 929.296 568.592 937.189 560.454V562.529C929.377 570.342 921.32 577.015 913.02 582.549C905.044 587.839 899.185 590.483 895.441 590.483C892.593 590.483 891.169 589.059 891.169 586.211C891.169 583.607 892.39 580.27 894.831 576.201C897.272 572.051 901.138 566.802 906.428 560.454L908.747 557.769L904.23 561.797C899.104 566.354 894.465 570.342 890.314 573.76C886.245 577.096 882.38 580.107 878.718 582.793C871.638 587.92 866.063 590.483 861.994 590.483C858.983 590.483 857.478 588.734 857.478 585.234C857.478 582.956 858.169 580.474 859.553 577.788C860.773 575.103 862.523 572.214 864.802 569.121C867.162 566.029 869.562 563.221 872.004 560.698L879.694 552.031L873.469 555.693C870.539 557.891 868.057 559.803 866.022 561.431C863.988 562.977 862.401 564.32 861.262 565.459Z" fill="white"/>
</svg>
