<svg width="500" height="500" viewBox="0 0 500 500" fill="none" xmlns="http://www.w3.org/2000/svg">
<rect width="500" height="500" rx="100" fill="url(#paint0_linear_164_5)"/>
<path d="M29.95 275V225.3H36.25V269.4H63.97V275H29.95ZM85.9489 225.3H91.2689L111.569 275H104.849L98.9689 260.44H78.1089L72.2989 275H65.5789L85.9489 225.3ZM97.5689 255.54L88.6089 232.58L79.3689 255.54H97.5689ZM114.492 270.1L146.552 230.9H115.122V225.3H153.902V230.2L122.402 269.4H153.902V275H114.492V270.1ZM177.482 225.3H182.802L203.102 275H196.382L190.502 260.44H169.642L163.832 275H157.112L177.482 225.3ZM189.102 255.54L180.142 232.58L170.902 255.54H189.102ZM209.735 275V225.3H216.035V275H209.735ZM234.219 236.92V275H227.919V225.3H233.239L263.619 264.15V225.37H269.919V275H264.179L234.219 236.92ZM337.641 262.19C337.641 264.757 336.988 266.997 335.681 268.91C334.374 270.823 332.601 272.317 330.361 273.39C328.168 274.463 325.741 275 323.081 275H299.491V225.3H324.201C326.534 225.3 328.541 225.93 330.221 227.19C331.948 228.403 333.254 229.99 334.141 231.95C335.074 233.863 335.541 235.87 335.541 237.97C335.541 240.397 334.911 242.683 333.651 244.83C332.438 246.93 330.688 248.493 328.401 249.52C331.248 250.36 333.488 251.923 335.121 254.21C336.801 256.45 337.641 259.11 337.641 262.19ZM331.271 261.07C331.271 259.53 330.921 258.107 330.221 256.8C329.568 255.493 328.658 254.443 327.491 253.65C326.371 252.857 325.064 252.46 323.571 252.46H305.791V269.54H323.081C324.621 269.54 325.998 269.143 327.211 268.35C328.471 267.557 329.451 266.53 330.151 265.27C330.898 263.963 331.271 262.563 331.271 261.07ZM305.791 230.76V247.35H321.611C323.104 247.35 324.411 246.977 325.531 246.23C326.698 245.483 327.608 244.48 328.261 243.22C328.961 241.96 329.311 240.583 329.311 239.09C329.311 237.503 328.984 236.103 328.331 234.89C327.724 233.63 326.861 232.627 325.741 231.88C324.668 231.133 323.431 230.76 322.031 230.76H305.791ZM346.454 275V225.3H352.754V269.4H380.474V275H346.454ZM421.073 269.4V275H387.333V225.3H420.443V230.9H393.633V247H416.943V252.25H393.633V269.4H421.073ZM406.933 219.35L402.873 217.95L406.933 210.88H413.093L406.933 219.35ZM450.226 275.35C446.259 275.35 442.922 274.673 440.216 273.32C437.509 271.92 435.339 270.053 433.706 267.72C432.072 265.34 430.882 262.657 430.136 259.67C429.389 256.683 429.016 253.603 429.016 250.43V225.3H435.316V250.43C435.316 252.857 435.549 255.237 436.016 257.57C436.529 259.857 437.346 261.91 438.466 263.73C439.586 265.55 441.102 266.997 443.016 268.07C444.929 269.143 447.309 269.68 450.156 269.68C453.049 269.68 455.452 269.143 457.366 268.07C459.279 266.95 460.796 265.48 461.916 263.66C463.036 261.793 463.829 259.717 464.296 257.43C464.809 255.143 465.066 252.81 465.066 250.43V225.3H471.366V250.43C471.366 253.79 470.969 256.987 470.176 260.02C469.429 263.007 468.216 265.643 466.536 267.93C464.856 270.217 462.662 272.037 459.956 273.39C457.296 274.697 454.052 275.35 450.226 275.35Z" fill="white"/>
<defs>
<linearGradient id="paint0_linear_164_5" x1="0" y1="250" x2="998.5" y2="250" gradientUnits="userSpaceOnUse">
<stop stop-color="#0F172A"/>
<stop offset="1" stop-color="#042372"/>
</linearGradient>
</defs>
</svg>
